<?xml version="1.0" encoding="UTF-8"?>
<!DOCTYPE svg PUBLIC "-//W3C//DTD SVG 1.0//EN" "http://www.w3.org/TR/2001/REC-SVG-20010904/DTD/svg10.dtd">
<!-- Creator: CorelDRAW X8 -->
<svg xmlns="http://www.w3.org/2000/svg" xml:space="preserve" width="210mm" height="297mm" version="1.0" style="shape-rendering:geometricPrecision; text-rendering:geometricPrecision; image-rendering:optimizeQuality; fill-rule:evenodd; clip-rule:evenodd"
viewBox="0 0 21000 29700"
 xmlns:xlink="http://www.w3.org/1999/xlink">
 <defs>
  <style type="text/css">
   <![CDATA[
    .str0 {stroke:red;stroke-width:20}
    .fil1 {fill:red}
    .fil0 {fill:black;fill-rule:nonzero}
   ]]>
  </style>
 </defs>
 <g id="Слой_x0020_1">
  <metadata id="CorelCorpID_0Corel-Layer"/>
  <path class="fil0" d="M9099 4443c-214,174 -528,141 -701,-72 -174,-214 -142,-528 72,-701 289,-234 612,-414 954,-536 688,-243 1436,-247 2126,-9 333,114 649,286 935,509 217,169 255,482 86,699 -169,217 -483,256 -699,86 -194,-151 -412,-268 -647,-349 -231,-80 -476,-121 -725,-121 -257,0 -508,43 -744,127 -238,84 -460,208 -657,367zm-1591 2550c-267,68 -539,-93 -607,-361 -68,-267 94,-539 361,-607l6099 -1561c267,-68 539,93 607,361 68,267 -94,539 -361,607l-6099 1561zm0 2129c-267,68 -539,-94 -607,-361 -68,-268 94,-540 361,-608l6099 -1561c267,-68 539,94 607,362 68,267 -94,539 -361,607l-6099 1561zm-400 7837c-64,-59 -119,-89 -119,-89 0,0 -23,-9 -62,-22 -39,-9 -95,-29 -162,-36 -135,-23 -311,-23 -479,5 -169,25 -328,78 -444,125 -229,106 -181,545 163,417 93,-37 219,-79 345,-99 126,-21 250,-21 335,-8 86,11 135,32 135,32 0,0 17,1 42,3 13,1 26,4 41,7 16,2 33,5 47,11 15,4 32,9 46,14 14,6 27,11 38,16 24,9 35,18 36,14 56,21 109,50 156,41 22,-4 41,-18 51,-49 9,-30 12,-81 -15,-149 -10,-45 -36,-84 -62,-128 -29,-37 -60,-78 -92,-105zm8687 -1277c-71,-103 -144,-203 -221,-302 -5,9 -10,17 -15,24l-19 24c-25,31 -51,56 -79,79 -21,18 -44,33 -66,48 58,11 117,25 177,42 73,22 148,50 223,85zm696 5972c281,-722 435,-1508 435,-2329 0,-691 -111,-1369 -322,-2011 31,274 55,549 72,824 50,836 35,1676 -47,2511 -25,208 -47,417 -76,625l-62 380zm-11073 1604c166,215 346,419 538,611 1163,1163 2769,1882 4544,1882 1775,0 3381,-719 4544,-1882 253,-253 484,-526 692,-817 -45,17 -90,31 -133,42 -39,11 -76,18 -113,24l-56 9 -28 3 -21 2 -332 21 -320 5c-209,2 -417,-2 -615,-3l-1225 -10 -1227 -10 -307 -2c-113,-6 -239,-12 -356,-32 -236,-34 -469,-97 -690,-185 -443,-178 -835,-456 -1157,-791 -321,-337 -573,-732 -750,-1160 -174,-428 -270,-891 -268,-1363 1,-235 30,-472 85,-704 54,-232 143,-461 237,-662 195,-412 470,-806 831,-1121 362,-315 804,-536 1257,-652 231,-58 451,-90 677,-110 225,-19 455,-20 685,0 460,40 925,171 1339,400l152 91c51,30 98,65 147,98 50,33 93,69 138,103l68 53 68 57c182,154 349,339 485,534 275,393 449,837 534,1295 42,229 62,464 57,698l-2 87 -8 96c-8,63 -9,128 -25,190 -13,63 -25,127 -41,189l-60 182c-181,477 -507,873 -899,1153 -49,36 -98,71 -150,101l-115 70c-19,11 -38,21 -57,31l-116 59c-77,38 -159,69 -238,102 -165,57 -332,107 -507,133 0,0 -25,2 -72,7 -48,5 -116,8 -200,8 -169,-1 -401,-20 -655,-78 -254,-59 -531,-157 -790,-301 -258,-142 -496,-334 -664,-550 -145,-180 -229,-356 -270,-503 -41,-147 -47,-264 -37,-347 20,-166 69,-204 114,-166 49,37 96,149 182,279 83,132 210,278 380,404 -11,-20 74,56 240,146 164,91 414,187 680,235 265,51 539,53 732,30 48,-5 91,-12 129,-19 37,-8 70,-16 96,-22 53,-11 83,-23 83,-23 56,-14 112,-24 167,-45l82 -27 81 -34c54,-20 105,-49 157,-75l39 -20 65 -40c34,-21 70,-41 101,-67 134,-92 253,-203 353,-325 99,-122 184,-254 238,-394 55,-141 84,-281 92,-435 15,-339 -44,-684 -163,-1001 -120,-318 -302,-608 -537,-823 -62,-54 -126,-108 -198,-163 -35,-28 -70,-51 -104,-75 -35,-24 -70,-47 -107,-68 -143,-87 -295,-159 -455,-213 -319,-108 -665,-149 -1018,-133 -175,9 -358,31 -526,65 -166,32 -329,85 -481,152 -152,66 -295,149 -427,248 -131,100 -250,216 -357,345 -107,129 -203,270 -285,424 -81,152 -156,321 -206,474 -103,314 -126,655 -86,993 42,338 155,672 319,976 167,303 387,577 649,795 262,215 563,378 883,460 80,20 160,39 242,48 41,6 82,12 122,13l61 4 31 3 36 0 598 5 1195 10 1201 9 296 2 287 -4c94,-3 182,-11 273,-16l68 -4c13,-2 25,-5 38,-6 14,-1 23,-6 33,-8l16 -4 11 -5c29,-13 29,-15 41,-28 11,-15 32,-57 51,-126 18,-68 35,-157 53,-255 8,-47 19,-104 26,-150l23 -143c67,-380 114,-765 148,-1152 66,-774 72,-1554 18,-2329l-52 -580 -78 -577c-22,-156 -63,-244 -119,-304 -28,-30 -62,-55 -110,-78 -47,-23 -107,-43 -177,-57 -139,-29 -313,-34 -494,-28 -182,6 -374,24 -578,40 -104,8 -205,16 -322,20l-78 2c-21,1 -42,1 -66,2l-161 9c-201,14 -401,8 -571,-36 -171,-42 -326,-114 -415,-226 -48,-51 -90,-140 -103,-196 -16,-59 -23,-117 -15,-192 2,-35 16,-78 25,-118l28 -67 14 -33c6,-11 13,-23 19,-34l80 -138c22,-42 39,-80 59,-121l14 -30 4 -9 1 -4 5 -18c4,-12 6,-24 7,-35 5,-22 5,-43 5,-62 -1,-39 -9,-74 -26,-108 -34,-67 -105,-145 -225,-202 -124,-62 -281,-109 -449,-140 -168,-33 -348,-49 -529,-54 -182,-6 -367,-3 -550,13 -184,15 -367,37 -544,72 -88,18 -176,37 -259,60 -44,11 -79,24 -118,36 -39,10 -72,27 -108,42 -44,16 -85,41 -128,62 -22,10 -39,23 -58,35 -19,12 -41,22 -56,36 -71,49 -125,104 -167,158 -43,54 -65,107 -78,164 -12,56 -6,462 -14,520 -11,63 -39,147 -88,226 -6,11 -47,65 -71,78 -156,75 -303,114 -447,147 -143,34 -280,51 -416,67 -269,29 -528,38 -782,44l-821 13c-266,6 -527,20 -762,56 -116,18 -224,44 -309,76l-32 12 -25 13 -26 12 -19 13c-14,6 -23,16 -27,20l-3 1 0 0 0 0 -1 2 -10 20c-8,17 -17,36 -26,60 -17,45 -34,100 -50,156 -31,114 -58,238 -81,364 -76,414 -123,850 -158,1285 -35,437 -58,876 -70,1316 -11,439 -12,879 2,1314 8,217 20,433 39,644 9,105 21,210 35,309 8,49 16,98 25,144 5,22 9,45 14,65l5 20 1 1 22 4c45,8 93,15 142,21 198,24 409,36 617,37 208,1 415,-9 610,-33 97,-12 190,-29 271,-51 38,-10 79,-24 101,-33l2 0 0 -1 4 -25c7,-46 11,-100 16,-150 6,-50 10,-102 13,-156 8,-106 15,-213 18,-322l8 -171c7,-219 12,-439 14,-660 0,0 29,-339 68,-797 41,-459 94,-1039 160,-1519 91,-815 206,-1060 288,-969 82,88 152,496 208,999 10,-53 56,548 98,1165 20,308 39,620 51,856 12,236 20,395 20,395 -4,221 -9,442 -18,666l-5 110c-2,56 -4,111 -8,169 -8,115 -13,226 -27,346l-9 89c-3,29 -6,60 -12,94l-12 67c-5,27 -10,54 -17,81 -6,27 -13,54 -20,80 -5,12 -4,28 -15,38l-16 36c-85,197 -280,331 -474,409 -150,59 -277,88 -404,112 -126,23 -247,37 -367,48 -240,21 -474,25 -708,19 -160,-5 -319,-13 -483,-31zm-883 -6324c-301,751 -461,1562 -461,2391 0,531 64,1048 186,1542 -7,-372 -3,-742 7,-1112 13,-445 36,-889 73,-1335 37,-445 84,-890 167,-1347 9,-46 18,-92 28,-139zm10097 -2532l-5 -4 0 0 -2 -2 0 0 0 0 0 0 0 -1 0 0 -1 0c-1,-1 -3,-3 -5,-4l0 -1 0 0 0 0 0 0 -1 0 0 0 0 0 0 -1 0 0 0 0 0 0 -1 0 0 0 0 0 0 0 0 -1 0 0 -1 0 0 -1 -1 0 -4 -4c-10,-9 -19,-17 -28,-26l-1 -1c-28,-26 -55,-52 -81,-78l-2 -1c-8,-9 -17,-17 -25,-26l-1 0c-17,-18 -35,-36 -52,-54l0 -1c-173,-182 -326,-379 -461,-586l-1 -1c-27,-41 -53,-83 -78,-124l-1 -2c-38,-63 -75,-127 -110,-191l-1 -3c-29,-53 -57,-107 -85,-161l-1 -4c-11,-20 -21,-41 -31,-62l-1 -2c-5,-10 -10,-21 -15,-32l-1 -2c-5,-10 -10,-20 -15,-31l-2 -4c-10,-21 -19,-42 -29,-63l0 0c-5,-11 -9,-22 -14,-32l-1 -2 -3 -6c-4,-9 -8,-19 -12,-28 -4,-11 -9,-21 -14,-32l0 -2c-5,-10 -10,-21 -14,-32l-1 -2c-4,-10 -9,-21 -13,-32l-1 -2c-5,-11 -9,-22 -14,-33l0 -1c-4,-11 -9,-22 -13,-33l-8 -19 -6 -15 0 -1c-5,-11 -9,-22 -13,-34l-1 0c-4,-12 -8,-23 -13,-34l0 -1c-4,-11 -8,-22 -13,-34l0 0c-4,-12 -8,-23 -12,-34l-1 -1c-4,-11 -8,-23 -12,-34l0 0c-4,-12 -8,-23 -12,-35l-1 0c-4,-11 -8,-23 -12,-34l0 -1c-4,-11 -8,-23 -12,-34 -243,-709 -367,-1444 -456,-2079 -38,-273 153,-524 426,-562 273,-38 524,153 562,426 82,581 195,1253 414,1891l9 28 0 0 10 28 0 0c4,9 7,19 10,28l0 0 10 28 1 0 10 28 0 0 10 27 0 1 11 27 0 1 10 27 1 1 10 27 1 1 10 26 1 1 10 27 1 1 11 26 0 2 11 25 1 2 11 26 1 1 11 26 0 2c4,8 8,17 12,25l11 25 1 2 8 18 4 9 1 2 11 25c12,24 24,49 36,73l3 8c9,16 17,33 25,49l1 3 10 19 4 7c22,43 45,85 69,127l1 2 12 22 2 4c10,16 20,32 29,49l1 1c29,49 60,98 91,145l2 4c49,72 99,143 153,211l0 0c90,114 188,222 294,321l0 0c7,7 14,13 21,20l0 0c26,22 52,44 77,66l3 2c12,11 24,21 36,32l2 2c12,10 24,21 36,32l3 2c12,11 24,21 36,32l1 1c25,22 50,45 74,68l1 1c12,11 24,22 36,34l3 2c11,11 23,22 34,32l4 4c11,11 22,21 33,32l2 2c12,11 23,23 35,34l0 0c12,12 24,24 36,35l1 1c12,12 23,23 34,35l4 3c11,11 22,22 33,34l0 0c12,12 23,24 34,35l5 5c10,11 21,21 31,32l2 3c11,11 22,23 33,34l2 3c11,11 22,23 33,34l1 2c11,12 22,24 33,35l2 3c11,12 21,23 32,35l2 2c11,12 21,24 32,36l1 1c11,12 21,24 32,37l1 0c22,25 44,51 65,76l3 3c10,12 20,24 30,35l3 4c10,11 19,23 28,34l9 10c8,10 16,20 25,30l1 2c10,12 20,24 30,37l7 8c8,10 16,20 24,30l7 9c18,23 37,46 55,70l12 16 19 24 10 13c7,9 14,18 20,28l10 12c7,10 14,19 21,28l7 10c8,10 16,21 23,31l4 5c8,12 17,24 25,35l9 12c7,10 14,20 21,29l6 10c8,10 15,21 23,31l7 11c7,10 14,20 22,31l5 8c8,11 15,22 23,33l7 10c7,11 14,21 21,32l7 10c7,11 14,21 21,31l10 16 17 25 11 17c6,9 12,18 17,27l1 1c8,13 17,27 26,41l9 14c6,9 11,18 17,27l14 23 13 20 9 15c14,24 29,48 43,72l3 5c8,12 15,25 22,38l1 0c8,14 16,28 24,42l1 2c8,14 16,27 24,41l1 2c8,14 16,28 24,42l1 2c7,14 15,28 23,42l1 2c8,14 15,28 23,42l1 1c8,15 15,29 23,43 5,9 9,18 14,27l9 18 1 1c8,15 16,29 23,44 8,15 15,29 23,44l0 1c7,14 15,29 22,44l1 0c7,15 14,30 21,45l1 0c7,15 14,30 21,45l1 0c7,15 14,30 21,45l0 0c7,15 14,30 21,45 453,972 696,2041 696,3139 0,2050 -831,3907 -2175,5251 -1344,1344 -3200,2175 -5251,2175 -2051,0 -3907,-831 -5251,-2175 -1344,-1344 -2175,-3201 -2175,-5251 0,-1098 243,-2167 696,-3139 7,-15 14,-30 21,-45l0 0c7,-15 14,-30 21,-45l1 0c7,-15 14,-30 21,-45l1 0c7,-15 14,-30 22,-45l0 0c7,-15 15,-30 22,-44l0 -1c8,-15 15,-29 23,-44l0 -1c8,-14 15,-29 23,-43l12 -23 12 -23c8,-14 15,-28 23,-43l1 -1c8,-14 15,-28 23,-42l0 -1c5,-9 10,-18 15,-26l9 -17 1 -2c8,-14 16,-28 24,-42l0 0c7,-13 15,-26 22,-39l3 -4c7,-12 13,-23 20,-34l5 -10c6,-9 11,-18 16,-27l10 -17c15,-24 30,-49 44,-73l8 -13 14 -22 13 -20c8,-13 16,-26 24,-38l2 -4c7,-11 15,-23 22,-35l5 -7c6,-9 12,-18 18,-27l10 -16c7,-11 14,-22 22,-33l5 -8c7,-12 15,-24 23,-35l5 -7c8,-12 16,-24 24,-35l4 -7c8,-12 16,-24 25,-36l3 -5c9,-12 17,-24 25,-36l4 -5c9,-12 17,-25 26,-37l3 -4c8,-11 16,-23 24,-34l5 -7c8,-11 16,-22 24,-33l6 -8c8,-11 16,-22 24,-33l6 -8c9,-12 19,-25 28,-37l2 -2c9,-13 19,-25 28,-38l2 -2c9,-12 18,-23 27,-35l4 -6c19,-24 39,-49 58,-73l5 -6c29,-37 58,-73 88,-109l8 -9c9,-12 19,-23 29,-35l2 -3c31,-37 63,-73 95,-110l5 -5c110,-126 225,-249 345,-368l1 -1c12,-11 24,-23 35,-34l1 -1c24,-24 48,-47 73,-70l1 -1c12,-12 24,-23 36,-35l1 0c36,-35 74,-69 111,-103l1 -1c63,-57 128,-113 193,-168l0 0 0 0c6,-6 13,-12 19,-18l1 0c6,-6 12,-11 18,-17l1 -1c12,-12 24,-24 36,-36l0 0c6,-6 12,-12 18,-18l2 -1c5,-6 11,-11 16,-17l3 -2 15 -16 3 -4c5,-5 10,-10 15,-15l2 -2c17,-19 34,-37 50,-56l2 -1c5,-6 10,-12 15,-18l3 -2 14 -17 4 -4c4,-5 9,-11 13,-16l2 -3 15 -17 0 -1c22,-26 44,-53 65,-80l1 -1c10,-13 20,-26 30,-40l2 -3 13 -17 3 -4 13 -17 1 -2 13 -19 4 -5 11 -15 4 -6c13,-20 27,-39 40,-59l2 -3 13 -19 0 -1c9,-14 19,-28 28,-42l2 -4 12 -18 2 -4 12 -19 0 -1c14,-22 27,-43 40,-66l0 0c4,-7 8,-15 13,-22l0 0 12 -21 4 -7 9 -17 2 -2 11 -21 1 -1 11 -21 3 -4 10 -19 0 -1 11 -20 1 -3 11 -20 1 -3 11 -21 1 -2 11 -21 1 -2 11 -21 1 -2 10 -22 1 -2 11 -22 1 -1 10 -22 1 -2 10 -22 1 -2 10 -22 1 -1 10 -23 1 -1 10 -23 1 -1 10 -23 0 -1 10 -23 1 -1 10 -23 0 -1 10 -23 0 -1 10 -24 0 0 10 -24 0 -1 10 -23 0 -1 10 -24 0 0 9 -24 0 -1 10 -24c212,-552 338,-1147 426,-1694 0,-4 1,-8 2,-12l0 -3 2 -8 1 -5c0,-3 1,-6 2,-9l0 -1c1,-4 2,-8 3,-12l1 -2c0,-3 1,-6 2,-9l1 -3 2 -8 2 -4c1,-3 2,-7 3,-10l0 0 0 -1c2,-3 3,-7 4,-10l1 -3c1,-3 2,-5 3,-8l1 -3 4 -9 1 -1c1,-4 3,-7 4,-10l2 -4 3 -7 2 -3 3 -7 2 -3c2,-3 3,-6 5,-10l0 0 1 -1 5 -8 2 -4 3 -6 3 -3 3 -6 4 -6c1,-2 3,-4 4,-6l3 -4 4 -5 3 -4 3 -5 3 -4 5 -6 4 -5 4 -5 3 -4 4 -4 4 -4 3 -4 6 -6 5 -5 3 -4 4 -3 4 -4 4 -4 4 -4 0 0c2,-2 5,-4 7,-6l5 -4 3 -3 5 -4 2 -2 6 -5 2 -1c4,-3 8,-7 13,-10l0 0 6 -5 2 -1 7 -5 1 0c10,-7 20,-13 30,-19l1 -1c10,-6 21,-11 32,-17l1 0c14,-7 28,-13 42,-18l0 0c24,-9 48,-16 73,-21l5933 -1521c266,-68 537,93 605,359 68,266 -93,538 -359,606l-5643 1447c-26,143 -55,288 -88,435l-6 25 0 1 -5 23c-12,49 -23,99 -35,148l-5 19 -2 10 -5 18 -2 8 -4 17 -1 2 -6 24 0 1 -6 24 -6 23 -1 3 -6 20 -2 8 -4 18 -1 2 -6 21 -1 4 -2 8c-3,12 -7,25 -10,38l-2 5 -4 15 -3 12 -6 19 -2 6 -5 19 0 2 -7 23 -1 2 -7 24 -1 4 -2 8 -6 17 -5 17 -1 6 -7 21 -2 6 -6 19 0 1 -8 25 0 0 -7 25 -1 1 -4 14 -5 14 -5 15 -3 12 -5 14 -6 18 -2 7 -2 4 -8 24 0 2 -9 26 -4 12 -6 16 -4 12 -5 15 -5 14 -1 2 -8 23 -1 1 -10 28 0 1 -9 25 -5 12 -5 14 -5 14 -6 15 -4 11 -10 27c-4,11 -8,21 -12,31l0 0 -12 31 -1 0c-4,10 -8,21 -12,31l0 0c-4,10 -8,20 -12,30l0 1 -13 30 0 0 -13 30 0 1c-4,10 -8,20 -12,30l-1 1c-4,10 -8,19 -13,29l0 1c-4,10 -9,20 -13,30l0 1 -13 29 -1 1 -13 29 0 1c-5,10 -9,19 -14,29l0 1c-5,10 -9,20 -14,29l0 1c-5,10 -9,20 -14,29l-1 1c-4,10 -9,19 -13,29l-1 1c-5,10 -9,19 -14,29l-1 1c-4,10 -9,19 -13,28l-1 2c-5,9 -10,19 -14,28l-1 2 -14 27 -1 2c-5,9 -10,19 -15,28l0 0 -10 19 -5 10 -1 2c-5,9 -10,18 -15,27l-11 22 -5 7 -1 3c-5,9 -10,18 -15,26l-11 21 -5 8 -1 3c-5,9 -10,17 -15,26l-1 1 -10 18 -7 11 -14 24 -2 4 -12 21 -5 8 -14 22 -3 5c-12,19 -23,38 -35,56l0 0c-35,56 -72,111 -110,166l0 0c-25,36 -51,72 -77,107l-1 1c-7,9 -13,18 -20,26l0 1c-7,9 -13,17 -20,26l0 0c-54,70 -110,138 -168,204l-2 3c-89,100 -183,196 -283,288l0 0 -4 4 -1 0 0 1 -1 0 0 0 0 1 0 0 0 0 0 0 -1 0 0 0 0 0 0 1 0 0 -1 0 0 0c-2,2 -3,3 -5,5l0 0 0 0 -1 0 0 0 0 0 0 1 0 0 0 0 0 0 -2 2 0 0 -5 4c-508,426 -942,924 -1290,1473 8,-5 16,-10 24,-15l68 -43 67 -33 67 -32 64 -25c173,-65 334,-99 489,-125 308,-47 597,-59 880,-67l825 -13c242,-5 479,-15 703,-39 78,-8 155,-19 228,-33 -2,-102 7,-206 30,-308 41,-185 124,-363 234,-505 108,-143 235,-261 368,-354 32,-26 66,-44 100,-65 33,-21 67,-44 101,-60 68,-35 135,-72 206,-101 58,-24 116,-50 175,-67 58,-19 118,-39 172,-52 111,-31 221,-55 331,-77 220,-43 438,-69 657,-86 219,-16 439,-21 661,-12 223,10 447,29 677,76 230,47 465,117 706,246 122,69 241,156 348,268 106,111 199,249 257,405 59,155 83,325 72,485 -1,41 -6,80 -13,119 -6,39 -12,78 -23,114l-15 56 -8 28 -2 5 -7 19 0 1 0 0 76 -4c54,-3 110,-6 169,-7l68 -2 37 -2c-2,-8 -4,-18 -6,-29 -7,-25 -69,-263 -69,-304 -43,-184 137,-267 182,-288 45,-21 98,-36 148,-55 61,-21 115,-36 176,-51 59,-17 119,-30 180,-43 177,-35 358,-59 527,-56 -120,-119 -246,-233 -376,-342zm204 1108c-180,2 -352,14 -516,27 -1,-7 -3,-16 -5,-31 -3,-19 -9,-43 -16,-75 -8,-28 -18,-66 -31,-112l1 0c20,-7 41,-14 62,-20 24,-8 50,-14 75,-21 50,-14 102,-26 154,-37 207,-44 419,-61 545,-42 115,48 -18,289 -36,317 -79,-5 -157,-6 -233,-6z"/>
  <path class="fil0" d="M9099 4443c-214,174 -528,141 -701,-72 -174,-214 -142,-528 72,-701 289,-234 612,-414 954,-536 688,-243 1436,-247 2126,-9 333,114 649,286 935,509 217,169 255,482 86,699 -169,217 -483,256 -699,86 -194,-151 -412,-268 -647,-349 -231,-80 -476,-121 -725,-121 -257,0 -508,43 -744,127 -238,84 -460,208 -657,367zm-1591 2550c-267,68 -539,-93 -607,-361 -68,-267 94,-539 361,-607l6099 -1561c267,-68 539,93 607,361 68,267 -94,539 -361,607l-6099 1561zm0 2129c-267,68 -539,-94 -607,-361 -68,-268 94,-540 361,-608l6099 -1561c267,-68 539,94 607,362 68,267 -94,539 -361,607l-6099 1561zm-400 7837c-64,-59 -119,-89 -119,-89 0,0 -23,-9 -62,-22 -39,-9 -95,-29 -162,-36 -135,-23 -311,-23 -479,5 -169,25 -328,78 -444,125 -229,106 -181,545 163,417 93,-37 219,-79 345,-99 126,-21 250,-21 335,-8 86,11 135,32 135,32 0,0 17,1 42,3 13,1 26,4 41,7 16,2 33,5 47,11 15,4 32,9 46,14 14,6 27,11 38,16 24,9 35,18 36,14 56,21 109,50 156,41 22,-4 41,-18 51,-49 9,-30 12,-81 -15,-149 -10,-45 -36,-84 -62,-128 -29,-37 -60,-78 -92,-105zm8687 -1277c-71,-103 -144,-203 -221,-302 -5,9 -10,17 -15,24l-19 24c-25,31 -51,56 -79,79 -21,18 -44,33 -66,48 58,11 117,25 177,42 73,22 148,50 223,85zm696 5972c281,-722 435,-1508 435,-2329 0,-691 -111,-1369 -322,-2011 31,274 55,549 72,824 50,836 35,1676 -47,2511 -25,208 -47,417 -76,625l-62 380zm-11073 1604c166,215 346,419 538,611 1163,1163 2769,1882 4544,1882 1775,0 3381,-719 4544,-1882 253,-253 484,-526 692,-817 -45,17 -90,31 -133,42 -39,11 -76,18 -113,24l-56 9 -28 3 -21 2 -332 21 -320 5c-209,2 -417,-2 -615,-3l-1225 -10 -1227 -10 -307 -2c-113,-6 -239,-12 -356,-32 -236,-34 -469,-97 -690,-185 -443,-178 -835,-456 -1157,-791 -321,-337 -573,-732 -750,-1160 -174,-428 -270,-891 -268,-1363 1,-235 30,-472 85,-704 54,-232 143,-461 237,-662 195,-412 470,-806 831,-1121 362,-315 804,-536 1257,-652 231,-58 451,-90 677,-110 225,-19 455,-20 685,0 460,40 925,171 1339,400l152 91c51,30 98,65 147,98 50,33 93,69 138,103l68 53 68 57c182,154 349,339 485,534 275,393 449,837 534,1295 42,229 62,464 57,698l-2 87 -8 96c-8,63 -9,128 -25,190 -13,63 -25,127 -41,189l-60 182c-181,477 -507,873 -899,1153 -49,36 -98,71 -150,101l-115 70c-19,11 -38,21 -57,31l-116 59c-77,38 -159,69 -238,102 -165,57 -332,107 -507,133 0,0 -25,2 -72,7 -48,5 -116,8 -200,8 -169,-1 -401,-20 -655,-78 -254,-59 -531,-157 -790,-301 -258,-142 -496,-334 -664,-550 -145,-180 -229,-356 -270,-503 -41,-147 -47,-264 -37,-347 20,-166 69,-204 114,-166 49,37 96,149 182,279 83,132 210,278 380,404 -11,-20 74,56 240,146 164,91 414,187 680,235 265,51 539,53 732,30 48,-5 91,-12 129,-19 37,-8 70,-16 96,-22 53,-11 83,-23 83,-23 56,-14 112,-24 167,-45l82 -27 81 -34c54,-20 105,-49 157,-75l39 -20 65 -40c34,-21 70,-41 101,-67 134,-92 253,-203 353,-325 99,-122 184,-254 238,-394 55,-141 84,-281 92,-435 15,-339 -44,-684 -163,-1001 -120,-318 -302,-608 -537,-823 -62,-54 -126,-108 -198,-163 -35,-28 -70,-51 -104,-75 -35,-24 -70,-47 -107,-68 -143,-87 -295,-159 -455,-213 -319,-108 -665,-149 -1018,-133 -175,9 -358,31 -526,65 -166,32 -329,85 -481,152 -152,66 -295,149 -427,248 -131,100 -250,216 -357,345 -107,129 -203,270 -285,424 -81,152 -156,321 -206,474 -103,314 -126,655 -86,993 42,338 155,672 319,976 167,303 387,577 649,795 262,215 563,378 883,460 80,20 160,39 242,48 41,6 82,12 122,13l61 4 31 3 36 0 598 5 1195 10 1201 9 296 2 287 -4c94,-3 182,-11 273,-16l68 -4c13,-2 25,-5 38,-6 14,-1 23,-6 33,-8l16 -4 11 -5c29,-13 29,-15 41,-28 11,-15 32,-57 51,-126 18,-68 35,-157 53,-255 8,-47 19,-104 26,-150l23 -143c67,-380 114,-765 148,-1152 66,-774 72,-1554 18,-2329l-52 -580 -78 -577c-22,-156 -63,-244 -119,-304 -28,-30 -62,-55 -110,-78 -47,-23 -107,-43 -177,-57 -139,-29 -313,-34 -494,-28 -182,6 -374,24 -578,40 -104,8 -205,16 -322,20l-78 2c-21,1 -42,1 -66,2l-161 9c-201,14 -401,8 -571,-36 -171,-42 -326,-114 -415,-226 -48,-51 -90,-140 -103,-196 -16,-59 -23,-117 -15,-192 2,-35 16,-78 25,-118l28 -67 14 -33c6,-11 13,-23 19,-34l80 -138c22,-42 39,-80 59,-121l14 -30 4 -9 1 -4 5 -18c4,-12 6,-24 7,-35 5,-22 5,-43 5,-62 -1,-39 -9,-74 -26,-108 -34,-67 -105,-145 -225,-202 -124,-62 -281,-109 -449,-140 -168,-33 -348,-49 -529,-54 -182,-6 -367,-3 -550,13 -184,15 -367,37 -544,72 -88,18 -176,37 -259,60 -44,11 -79,24 -118,36 -39,10 -72,27 -108,42 -44,16 -85,41 -128,62 -22,10 -39,23 -58,35 -19,12 -41,22 -56,36 -71,49 -125,104 -167,158 -43,54 -65,107 -78,164 -12,56 -6,462 -14,520 -11,63 -39,147 -88,226 -6,11 -47,65 -71,78 -156,75 -303,114 -447,147 -143,34 -280,51 -416,67 -269,29 -528,38 -782,44l-821 13c-266,6 -527,20 -762,56 -116,18 -224,44 -309,76l-32 12 -25 13 -26 12 -19 13c-14,6 -23,16 -27,20l-3 1 0 0 0 0 -1 2 -10 20c-8,17 -17,36 -26,60 -17,45 -34,100 -50,156 -31,114 -58,238 -81,364 -76,414 -123,850 -158,1285 -35,437 -58,876 -70,1316 -11,439 -12,879 2,1314 8,217 20,433 39,644 9,105 21,210 35,309 8,49 16,98 25,144 5,22 9,45 14,65l5 20 1 1 22 4c45,8 93,15 142,21 198,24 409,36 617,37 208,1 415,-9 610,-33 97,-12 190,-29 271,-51 38,-10 79,-24 101,-33l2 0 0 -1 4 -25c7,-46 11,-100 16,-150 6,-50 10,-102 13,-156 8,-106 15,-213 18,-322l8 -171c7,-219 12,-439 14,-660 0,0 29,-339 68,-797 41,-459 94,-1039 160,-1519 91,-815 206,-1060 288,-969 82,88 152,496 208,999 10,-53 56,548 98,1165 20,308 39,620 51,856 12,236 20,395 20,395 -4,221 -9,442 -18,666l-5 110c-2,56 -4,111 -8,169 -8,115 -13,226 -27,346l-9 89c-3,29 -6,60 -12,94l-12 67c-5,27 -10,54 -17,81 -6,27 -13,54 -20,80 -5,12 -4,28 -15,38l-16 36c-85,197 -280,331 -474,409 -150,59 -277,88 -404,112 -126,23 -247,37 -367,48 -240,21 -474,25 -708,19 -160,-5 -319,-13 -483,-31zm-883 -6324c-301,751 -461,1562 -461,2391 0,531 64,1048 186,1542 -7,-372 -3,-742 7,-1112 13,-445 36,-889 73,-1335 37,-445 84,-890 167,-1347 9,-46 18,-92 28,-139zm10097 -2532l-5 -4 0 0 -2 -2 0 0 0 0 0 0 0 -1 0 0 -1 0c-1,-1 -3,-3 -5,-4l0 -1 0 0 0 0 0 0 -1 0 0 0 0 0 0 -1 0 0 0 0 0 0 -1 0 0 0 0 0 0 0 0 -1 0 0 -1 0 0 -1 -1 0 -4 -4c-10,-9 -19,-17 -28,-26l-1 -1c-28,-26 -55,-52 -81,-78l-2 -1c-8,-9 -17,-17 -25,-26l-1 0c-17,-18 -35,-36 -52,-54l0 -1c-173,-182 -326,-379 -461,-586l-1 -1c-27,-41 -53,-83 -78,-124l-1 -2c-38,-63 -75,-127 -110,-191l-1 -3c-29,-53 -57,-107 -85,-161l-1 -4c-11,-20 -21,-41 -31,-62l-1 -2c-5,-10 -10,-21 -15,-32l-1 -2c-5,-10 -10,-20 -15,-31l-2 -4c-10,-21 -19,-42 -29,-63l0 0c-5,-11 -9,-22 -14,-32l-1 -2 -3 -6c-4,-9 -8,-19 -12,-28 -4,-11 -9,-21 -14,-32l0 -2c-5,-10 -10,-21 -14,-32l-1 -2c-4,-10 -9,-21 -13,-32l-1 -2c-5,-11 -9,-22 -14,-33l0 -1c-4,-11 -9,-22 -13,-33l-8 -19 -6 -15 0 -1c-5,-11 -9,-22 -13,-34l-1 0c-4,-12 -8,-23 -13,-34l0 -1c-4,-11 -8,-22 -13,-34l0 0c-4,-12 -8,-23 -12,-34l-1 -1c-4,-11 -8,-23 -12,-34l0 0c-4,-12 -8,-23 -12,-35l-1 0c-4,-11 -8,-23 -12,-34l0 -1c-4,-11 -8,-23 -12,-34 -243,-709 -367,-1444 -456,-2079 -38,-273 153,-524 426,-562 273,-38 524,153 562,426 82,581 195,1253 414,1891l9 28 0 0 10 28 0 0c4,9 7,19 10,28l0 0 10 28 1 0 10 28 0 0 10 27 0 1 11 27 0 1 10 27 1 1 10 27 1 1 10 26 1 1 10 27 1 1 11 26 0 2 11 25 1 2 11 26 1 1 11 26 0 2c4,8 8,17 12,25l11 25 1 2 8 18 4 9 1 2 11 25c12,24 24,49 36,73l3 8c9,16 17,33 25,49l1 3 10 19 4 7c22,43 45,85 69,127l1 2 12 22 2 4c10,16 20,32 29,49l1 1c29,49 60,98 91,145l2 4c49,72 99,143 153,211l0 0c90,114 188,222 294,321l0 0c7,7 14,13 21,20l0 0c26,22 52,44 77,66l3 2c12,11 24,21 36,32l2 2c12,10 24,21 36,32l3 2c12,11 24,21 36,32l1 1c25,22 50,45 74,68l1 1c12,11 24,22 36,34l3 2c11,11 23,22 34,32l4 4c11,11 22,21 33,32l2 2c12,11 23,23 35,34l0 0c12,12 24,24 36,35l1 1c12,12 23,23 34,35l4 3c11,11 22,22 33,34l0 0c12,12 23,24 34,35l5 5c10,11 21,21 31,32l2 3c11,11 22,23 33,34l2 3c11,11 22,23 33,34l1 2c11,12 22,24 33,35l2 3c11,12 21,23 32,35l2 2c11,12 21,24 32,36l1 1c11,12 21,24 32,37l1 0c22,25 44,51 65,76l3 3c10,12 20,24 30,35l3 4c10,11 19,23 28,34l9 10c8,10 16,20 25,30l1 2c10,12 20,24 30,37l7 8c8,10 16,20 24,30l7 9c18,23 37,46 55,70l12 16 19 24 10 13c7,9 14,18 20,28l10 12c7,10 14,19 21,28l7 10c8,10 16,21 23,31l4 5c8,12 17,24 25,35l9 12c7,10 14,20 21,29l6 10c8,10 15,21 23,31l7 11c7,10 14,20 22,31l5 8c8,11 15,22 23,33l7 10c7,11 14,21 21,32l7 10c7,11 14,21 21,31l10 16 17 25 11 17c6,9 12,18 17,27l1 1c8,13 17,27 26,41l9 14c6,9 11,18 17,27l14 23 13 20 9 15c14,24 29,48 43,72l3 5c8,12 15,25 22,38l1 0c8,14 16,28 24,42l1 2c8,14 16,27 24,41l1 2c8,14 16,28 24,42l1 2c7,14 15,28 23,42l1 2c8,14 15,28 23,42l1 1c8,15 15,29 23,43 5,9 9,18 14,27l9 18 1 1c8,15 16,29 23,44 8,15 15,29 23,44l0 1c7,14 15,29 22,44l1 0c7,15 14,30 21,45l1 0c7,15 14,30 21,45l1 0c7,15 14,30 21,45l0 0c7,15 14,30 21,45 453,972 696,2041 696,3139 0,2050 -831,3907 -2175,5251 -1344,1344 -3200,2175 -5251,2175 -2051,0 -3907,-831 -5251,-2175 -1344,-1344 -2175,-3201 -2175,-5251 0,-1098 243,-2167 696,-3139 7,-15 14,-30 21,-45l0 0c7,-15 14,-30 21,-45l1 0c7,-15 14,-30 21,-45l1 0c7,-15 14,-30 22,-45l0 0c7,-15 15,-30 22,-44l0 -1c8,-15 15,-29 23,-44l0 -1c8,-14 15,-29 23,-43l12 -23 12 -23c8,-14 15,-28 23,-43l1 -1c8,-14 15,-28 23,-42l0 -1c5,-9 10,-18 15,-26l9 -17 1 -2c8,-14 16,-28 24,-42l0 0c7,-13 15,-26 22,-39l3 -4c7,-12 13,-23 20,-34l5 -10c6,-9 11,-18 16,-27l10 -17c15,-24 30,-49 44,-73l8 -13 14 -22 13 -20c8,-13 16,-26 24,-38l2 -4c7,-11 15,-23 22,-35l5 -7c6,-9 12,-18 18,-27l10 -16c7,-11 14,-22 22,-33l5 -8c7,-12 15,-24 23,-35l5 -7c8,-12 16,-24 24,-35l4 -7c8,-12 16,-24 25,-36l3 -5c9,-12 17,-24 25,-36l4 -5c9,-12 17,-25 26,-37l3 -4c8,-11 16,-23 24,-34l5 -7c8,-11 16,-22 24,-33l6 -8c8,-11 16,-22 24,-33l6 -8c9,-12 19,-25 28,-37l2 -2c9,-13 19,-25 28,-38l2 -2c9,-12 18,-23 27,-35l4 -6c19,-24 39,-49 58,-73l5 -6c29,-37 58,-73 88,-109l8 -9c9,-12 19,-23 29,-35l2 -3c31,-37 63,-73 95,-110l5 -5c110,-126 225,-249 345,-368l1 -1c12,-11 24,-23 35,-34l1 -1c24,-24 48,-47 73,-70l1 -1c12,-12 24,-23 36,-35l1 0c36,-35 74,-69 111,-103l1 -1c63,-57 128,-113 193,-168l0 0 0 0c6,-6 13,-12 19,-18l1 0c6,-6 12,-11 18,-17l1 -1c12,-12 24,-24 36,-36l0 0c6,-6 12,-12 18,-18l2 -1c5,-6 11,-11 16,-17l3 -2 15 -16 3 -4c5,-5 10,-10 15,-15l2 -2c17,-19 34,-37 50,-56l2 -1c5,-6 10,-12 15,-18l3 -2 14 -17 4 -4c4,-5 9,-11 13,-16l2 -3 15 -17 0 -1c22,-26 44,-53 65,-80l1 -1c10,-13 20,-26 30,-40l2 -3 13 -17 3 -4 13 -17 1 -2 13 -19 4 -5 11 -15 4 -6c13,-20 27,-39 40,-59l2 -3 13 -19 0 -1c9,-14 19,-28 28,-42l2 -4 12 -18 2 -4 12 -19 0 -1c14,-22 27,-43 40,-66l0 0c4,-7 8,-15 13,-22l0 0 12 -21 4 -7 9 -17 2 -2 11 -21 1 -1 11 -21 3 -4 10 -19 0 -1 11 -20 1 -3 11 -20 1 -3 11 -21 1 -2 11 -21 1 -2 11 -21 1 -2 10 -22 1 -2 11 -22 1 -1 10 -22 1 -2 10 -22 1 -2 10 -22 1 -1 10 -23 1 -1 10 -23 1 -1 10 -23 0 -1 10 -23 1 -1 10 -23 0 -1 10 -23 0 -1 10 -24 0 0 10 -24 0 -1 10 -23 0 -1 10 -24 0 0 9 -24 0 -1 10 -24c212,-552 338,-1147 426,-1694 0,-4 1,-8 2,-12l0 -3 2 -8 1 -5c0,-3 1,-6 2,-9l0 -1c1,-4 2,-8 3,-12l1 -2c0,-3 1,-6 2,-9l1 -3 2 -8 2 -4c1,-3 2,-7 3,-10l0 0 0 -1c2,-3 3,-7 4,-10l1 -3c1,-3 2,-5 3,-8l1 -3 4 -9 1 -1c1,-4 3,-7 4,-10l2 -4 3 -7 2 -3 3 -7 2 -3c2,-3 3,-6 5,-10l0 0 1 -1 5 -8 2 -4 3 -6 3 -3 3 -6 4 -6c1,-2 3,-4 4,-6l3 -4 4 -5 3 -4 3 -5 3 -4 5 -6 4 -5 4 -5 3 -4 4 -4 4 -4 3 -4 6 -6 5 -5 3 -4 4 -3 4 -4 4 -4 4 -4 0 0c2,-2 5,-4 7,-6l5 -4 3 -3 5 -4 2 -2 6 -5 2 -1c4,-3 8,-7 13,-10l0 0 6 -5 2 -1 7 -5 1 0c10,-7 20,-13 30,-19l1 -1c10,-6 21,-11 32,-17l1 0c14,-7 28,-13 42,-18l0 0c24,-9 48,-16 73,-21l5933 -1521c266,-68 537,93 605,359 68,266 -93,538 -359,606l-5643 1447c-26,143 -55,288 -88,435l-6 25 0 1 -5 23c-12,49 -23,99 -35,148l-5 19 -2 10 -5 18 -2 8 -4 17 -1 2 -6 24 0 1 -6 24 -6 23 -1 3 -6 20 -2 8 -4 18 -1 2 -6 21 -1 4 -2 8c-3,12 -7,25 -10,38l-2 5 -4 15 -3 12 -6 19 -2 6 -5 19 0 2 -7 23 -1 2 -7 24 -1 4 -2 8 -6 17 -5 17 -1 6 -7 21 -2 6 -6 19 0 1 -8 25 0 0 -7 25 -1 1 -4 14 -5 14 -5 15 -3 12 -5 14 -6 18 -2 7 -2 4 -8 24 0 2 -9 26 -4 12 -6 16 -4 12 -5 15 -5 14 -1 2 -8 23 -1 1 -10 28 0 1 -9 25 -5 12 -5 14 -5 14 -6 15 -4 11 -10 27c-4,11 -8,21 -12,31l0 0 -12 31 -1 0c-4,10 -8,21 -12,31l0 0c-4,10 -8,20 -12,30l0 1 -13 30 0 0 -13 30 0 1c-4,10 -8,20 -12,30l-1 1c-4,10 -8,19 -13,29l0 1c-4,10 -9,20 -13,30l0 1 -13 29 -1 1 -13 29 0 1c-5,10 -9,19 -14,29l0 1c-5,10 -9,20 -14,29l0 1c-5,10 -9,20 -14,29l-1 1c-4,10 -9,19 -13,29l-1 1c-5,10 -9,19 -14,29l-1 1c-4,10 -9,19 -13,28l-1 2c-5,9 -10,19 -14,28l-1 2 -14 27 -1 2c-5,9 -10,19 -15,28l0 0 -10 19 -5 10 -1 2c-5,9 -10,18 -15,27l-11 22 -5 7 -1 3c-5,9 -10,18 -15,26l-11 21 -5 8 -1 3c-5,9 -10,17 -15,26l-1 1 -10 18 -7 11 -14 24 -2 4 -12 21 -5 8 -14 22 -3 5c-12,19 -23,38 -35,56l0 0c-35,56 -72,111 -110,166l0 0c-25,36 -51,72 -77,107l-1 1c-7,9 -13,18 -20,26l0 1c-7,9 -13,17 -20,26l0 0c-54,70 -110,138 -168,204l-2 3c-89,100 -183,196 -283,288l0 0 -4 4 -1 0 0 1 -1 0 0 0 0 1 0 0 0 0 0 0 -1 0 0 0 0 0 0 1 0 0 -1 0 0 0c-2,2 -3,3 -5,5l0 0 0 0 -1 0 0 0 0 0 0 1 0 0 0 0 0 0 -2 2 0 0 -5 4c-508,426 -942,924 -1290,1473 8,-5 16,-10 24,-15l68 -43 67 -33 67 -32 64 -25c173,-65 334,-99 489,-125 308,-47 597,-59 880,-67l825 -13c242,-5 479,-15 703,-39 78,-8 155,-19 228,-33 -2,-102 7,-206 30,-308 41,-185 124,-363 234,-505 108,-143 235,-261 368,-354 32,-26 66,-44 100,-65 33,-21 67,-44 101,-60 68,-35 135,-72 206,-101 58,-24 116,-50 175,-67 58,-19 118,-39 172,-52 111,-31 221,-55 331,-77 220,-43 438,-69 657,-86 219,-16 439,-21 661,-12 223,10 447,29 677,76 230,47 465,117 706,246 122,69 241,156 348,268 106,111 199,249 257,405 59,155 83,325 72,485 -1,41 -6,80 -13,119 -6,39 -12,78 -23,114l-15 56 -8 28 -2 5 -7 19 0 1 0 0 76 -4c54,-3 110,-6 169,-7l68 -2 37 -2c-2,-8 -4,-18 -6,-29 -7,-25 -69,-263 -69,-304 -43,-184 137,-267 182,-288 45,-21 98,-36 148,-55 61,-21 115,-36 176,-51 59,-17 119,-30 180,-43 177,-35 358,-59 527,-56 -120,-119 -246,-233 -376,-342zm204 1108c-180,2 -352,14 -516,27 -1,-7 -3,-16 -5,-31 -3,-19 -9,-43 -16,-75 -8,-28 -18,-66 -31,-112l1 0c20,-7 41,-14 62,-20 24,-8 50,-14 75,-21 50,-14 102,-26 154,-37 207,-44 419,-61 545,-42 115,48 -18,289 -36,317 -79,-5 -157,-6 -233,-6z"/>
  <path class="fil1 str0" d="M13361 4464l-6099 1561c-267,68 -429,340 -361,607 68,268 340,429 607,361l6099 -1561c267,-68 429,-340 361,-607 -68,-268 -340,-429 -607,-361z"/>
  <path class="fil1 str0" d="M13361 6592l-6099 1561c-267,68 -429,340 -361,608 68,267 340,429 607,361l6099 -1561c267,-68 429,-340 361,-607 -68,-268 -340,-430 -607,-362z"/>
  <path class="fil1 str0" d="M9099 4443c802,-649 1959,-659 2773,-24 216,170 530,131 699,-86 169,-217 131,-530 -86,-699 -1187,-927 -2849,-910 -4015,36 -214,173 -246,487 -72,701 173,213 487,246 701,72z"/>
 </g>
</svg>
