<?xml version="1.0" encoding="UTF-8"?>
<!DOCTYPE svg PUBLIC "-//W3C//DTD SVG 1.0//EN" "http://www.w3.org/TR/2001/REC-SVG-20010904/DTD/svg10.dtd">
<!-- Creator: CorelDRAW X8 -->
<svg xmlns="http://www.w3.org/2000/svg" xml:space="preserve" width="178.405mm" height="143.84mm" version="1.0" style="shape-rendering:geometricPrecision; text-rendering:geometricPrecision; image-rendering:optimizeQuality; fill-rule:evenodd; clip-rule:evenodd"
viewBox="0 0 2458 1982"
 xmlns:xlink="http://www.w3.org/1999/xlink">
 <defs>
  <style type="text/css">
   <![CDATA[
    .str0 {stroke:white;stroke-width:1.04989}
    .fil3 {fill:black}
    .fil1 {fill:black;fill-rule:nonzero}
    .fil2 {fill:red;fill-rule:nonzero}
    .fil0 {fill:white;fill-rule:nonzero}
   ]]>
  </style>
 </defs>
 <g id="Слой_x0020_1">
  <metadata id="CorelCorpID_0Corel-Layer"/>
  <g id="_2172323977648">
   <g>
    <path class="fil0" d="M252 82c0,22 -7,40 -19,54 -16,19 -42,28 -76,28l-25 0 0 100 -49 0 0 -264 74 0c37,0 63,11 79,32 10,14 16,31 16,50zm-49 0c0,-14 -6,-24 -16,-29 -7,-4 -16,-6 -26,-6l-29 0 0 70 29 0c14,0 25,-3 32,-9 6,-6 10,-15 10,-26z"/>
    <polygon class="fil0" points="477,264 428,264 428,153 332,153 332,264 283,264 283,0 332,0 332,106 428,106 428,0 477,0 "/>
    <path class="fil0" d="M776 133c0,36 -12,67 -38,93 -26,25 -58,38 -95,38 -38,0 -70,-13 -96,-38 -25,-26 -38,-57 -38,-93 0,-37 13,-69 38,-94 26,-26 58,-39 96,-39 37,0 69,13 95,39 26,25 38,57 38,94zm-47 -1c0,-24 -8,-44 -24,-61 -17,-17 -38,-25 -62,-25 -25,0 -46,8 -62,25 -17,16 -25,37 -25,61 0,24 8,44 25,61 17,17 37,26 61,26 25,0 46,-9 63,-26 16,-17 24,-37 24,-61z"/>
    <path class="fil0" d="M1251 133c0,36 -13,67 -39,93 -26,25 -58,38 -95,38 -38,0 -70,-13 -95,-38 -26,-26 -39,-57 -39,-93 0,-37 13,-69 39,-94 25,-26 57,-39 95,-39 37,0 69,13 95,39 26,25 39,57 39,94zm-47 -1c0,-24 -9,-44 -25,-61 -17,-17 -38,-25 -62,-25 -25,0 -46,8 -62,25 -17,16 -25,37 -25,61 0,24 8,44 25,61 17,17 37,26 61,26 25,0 46,-9 63,-26 16,-17 25,-37 25,-61z"/>
    <path class="fil0" d="M1446 184c0,23 -7,42 -23,57 -15,15 -35,23 -59,23 -21,0 -39,-6 -55,-19 -18,-15 -27,-34 -27,-58l49 0c0,9 3,17 10,23 7,6 15,9 24,9 10,0 19,-4 25,-10 6,-6 9,-13 9,-22 0,-12 -4,-21 -12,-28 -6,-5 -14,-9 -25,-13 -21,-7 -36,-14 -46,-21 -16,-13 -25,-31 -25,-53 0,-19 7,-35 19,-48 15,-16 33,-24 57,-24 23,0 41,8 55,23 12,13 18,30 18,49l-48 0c0,-7 -2,-13 -6,-18 -5,-6 -12,-8 -21,-8 -9,0 -15,2 -20,7 -4,5 -7,12 -7,19 0,9 4,16 11,22 5,3 12,6 22,9 22,7 38,14 47,21 19,15 28,34 28,60z"/>
    <polygon class="fil0" points="1625,47 1576,47 1576,264 1527,264 1527,47 1478,47 1478,0 1625,0 "/>
    <path class="fil0" d="M1832 161c0,35 -9,61 -26,79 -15,16 -36,24 -62,24 -23,0 -42,-6 -57,-19 -21,-18 -31,-46 -31,-84l0 -161 48 0 0 163c0,15 2,27 6,35 6,13 17,20 34,20 17,0 29,-7 35,-20 3,-8 5,-20 5,-35l0 -163 48 0 0 161z"/>
    <path class="fil0" d="M2078 134c0,16 -2,31 -6,46 -8,23 -20,42 -38,56 -24,19 -56,28 -96,28l-74 0 0 -264 73 0c37,0 67,8 90,23 19,13 33,30 41,53 7,17 10,37 10,58zm-48 0c0,-36 -13,-61 -38,-75 -15,-8 -34,-12 -58,-12l-22 0 0 170 24 0c24,0 43,-4 57,-12 24,-13 37,-37 37,-71z"/>
    <polygon class="fil0" points="2159,264 2110,264 2110,0 2159,0 "/>
    <path class="fil0" d="M2458 133c0,36 -13,67 -39,93 -25,25 -57,38 -95,38 -37,0 -69,-13 -95,-38 -26,-26 -39,-57 -39,-93 0,-37 13,-69 39,-94 26,-26 58,-39 95,-39 38,0 70,13 95,39 26,25 39,57 39,94zm-47 -1c0,-24 -8,-44 -25,-61 -16,-17 -37,-25 -62,-25 -25,0 -45,8 -62,25 -16,16 -25,37 -25,61 0,24 9,44 26,61 16,17 37,26 61,26 25,0 46,-9 62,-26 17,-17 25,-37 25,-61z"/>
    <polygon class="fil0" points="856,46 846,46 808,46 808,0 951,0 951,46 914,46 904,46 894,46 894,1145 866,1145 866,46 "/>
   </g>
   <g>
    <polygon class="fil1 str0" points="1811,1418 1920,1418 1920,1961 1811,1961 "/>
    <polygon class="fil1 str0" points="1471,1637 1754,1637 1754,1742 1471,1742 "/>
    <path class="fil1 str0" d="M1754 1418l0 105 -254 0c-44,0 -78,8 -101,24 -34,18 -59,50 -75,96 -5,11 -7,42 -7,94l0 224 -110 0 0 -243c0,-60 8,-105 23,-137 13,-29 31,-56 55,-80 27,-27 53,-45 77,-56 40,-18 76,-26 109,-26l283 -1z"/>
    <path class="fil1 str0" d="M173 1418l367 0 0 111 -370 0c-29,0 -47,15 -53,43l0 8c0,17 9,31 28,42 6,2 12,4 18,4l186 0c48,0 80,5 97,14 43,19 72,48 88,87 9,24 13,47 13,69 0,55 -25,101 -76,138 -15,9 -32,17 -52,22 -14,3 -39,5 -73,5l-345 0 0 -112 371 0c31,0 51,-15 59,-46l1 -10c0,-22 -11,-38 -32,-50 -8,-4 -17,-6 -29,-6l-209 0c-54,0 -100,-24 -136,-71 -16,-27 -24,-54 -24,-81l0 -14c0,-56 27,-100 82,-133 22,-13 52,-20 89,-20z"/>
    <path class="fil2 str0" d="M2086 1643l215 0 0 -105 -215 0 0 -120 -109 0 0 243c0,59 7,105 22,137 13,29 32,56 55,80 27,27 53,45 78,56 39,17 75,26 108,26l61 0 0 -105 -31 0c-45,0 -79,-8 -102,-23 -34,-18 -58,-50 -75,-96 -5,-11 -7,-42 -7,-93z"/>
   </g>
   <g>
    <g>
     <path class="fil2" d="M833 1192c-8,6 -19,5 -25,-3 -6,-7 -5,-18 2,-24 11,-8 22,-15 34,-19 22,-8 52,-8 74,0 12,4 23,10 33,18 8,6 9,16 3,24 -6,8 -17,9 -24,3 -7,-5 -15,-9 -23,-12 -8,-3 -17,-4 -25,-4 -9,0 -18,1 -26,4 -9,3 -17,7 -23,13zm-56 89c-10,3 -19,-3 -21,-12 -3,-10 3,-19 12,-22l214 -54c9,-3 19,3 21,12 2,10 -3,19 -13,22l-213 54zm0 75c-10,2 -19,-3 -21,-13 -3,-9 3,-19 12,-21l214 -55c9,-2 19,3 21,13 2,9 -3,19 -13,21l-213 55z"/>
     <path class="fil3" d="M747 1539c9,-11 15,-20 21,-32 7,-12 10,-23 15,-36l9 -39 198 -51c9,-2 15,-12 12,-21 -2,-9 -11,-15 -21,-13l-208 54 -4 1c-5,3 -8,7 -9,13 -5,29 -12,59 -28,85l-11 15 -7 8 -12 11c-24,21 -43,49 -57,78 -46,100 -25,217 52,294 102,101 266,101 368,0 78,-78 99,-199 49,-299 -12,-26 -28,-48 -48,-68 -9,-9 -21,-18 -28,-28 -10,-13 -18,-27 -23,-43 -8,-23 -12,-46 -15,-67 -1,-10 -10,-16 -19,-15 -10,1 -17,10 -15,20 3,22 7,48 16,73l1 4 7 17c9,18 21,37 36,49 4,4 9,8 13,12 -9,0 -27,3 -36,8 -10,4 -6,11 -4,21l-12 1 0 -1c3,-8 3,-20 0,-28 -11,-28 -45,-34 -70,-35 -24,-1 -59,2 -81,16 -15,10 -26,24 -25,43 -17,3 -44,3 -62,3 -17,0 -42,1 -58,12 12,-19 28,-38 46,-52l10 -10zm-39 89l0 0zm2 -2c20,-11 96,1 126,-15 3,-1 6,-8 6,-11 0,-2 0,-16 1,-18 1,-7 10,-13 17,-16 11,-4 23,-6 36,-7 14,-1 54,-1 61,13 2,5 0,10 -2,14 -3,4 -6,8 -6,13 -1,12 7,19 18,22 11,3 19,1 28,1 16,0 38,-4 52,-1 9,1 13,5 14,15l3 20c4,33 4,69 1,102 -1,11 -5,46 -9,60l-3 5c-4,2 -30,2 -36,2l-84 -1 -29 -1c-51,-7 -86,-67 -71,-115 10,-29 31,-51 62,-57 32,-6 60,-1 84,20 20,18 31,55 22,80 -6,13 -20,26 -34,32l-22 6c-35,4 -58,-15 -58,-15 -14,-10 -16,-21 -20,-23 -4,-4 -9,15 7,35 12,16 32,26 51,30 18,4 34,4 50,-3l19 -9c15,-9 30,-26 36,-44l5 -19c2,-26 -6,-56 -21,-76 -7,-11 -20,-23 -31,-30 -17,-10 -33,-16 -53,-17 -32,-3 -66,5 -91,26 -18,16 -32,40 -38,63 -13,56 20,119 74,141 17,7 29,7 47,7l86 1 32 0c9,0 17,-1 24,-4 -87,123 -268,127 -361,8l42 0c16,-1 38,-5 44,-23 4,-10 5,-50 5,-59l-6 -85c-4,-36 -10,-57 -17,-1 -3,17 -4,37 -6,53l-2 28c0,8 -1,16 -1,23l-2 29c-13,6 -47,5 -61,2l-1 -1c-7,-28 -4,-104 -1,-132 0,-11 5,-55 11,-66l2 -2zm303 -45l10 -2c8,-2 15,-2 19,-2 4,2 0,10 -1,11 -3,0 -5,0 -8,0 -6,0 -12,1 -18,1l-2 -8zm39 9l7 -6c2,3 5,7 7,10l-14 -4zm44 178c4,-36 3,-80 -1,-117 16,50 15,104 -4,152l5 -35zm-424 -130c-8,38 -10,99 -9,138 -12,-46 -8,-94 9,-138z"/>
    </g>
    <path class="fil3" d="M749 1642c-11,-1 -23,0 -33,5 -8,3 -6,19 6,14 8,-3 16,-5 24,-4 3,1 5,2 5,2l7 1c1,1 1,1 1,1 3,1 7,3 8,0 1,-4 -3,-11 -6,-14 -4,-3 -7,-4 -12,-5z"/>
   </g>
  </g>
 </g>
</svg>
