<?xml version="1.0" encoding="utf-8"?>
<!-- Generator: Adobe Illustrator 16.0.0, SVG Export Plug-In . SVG Version: 6.00 Build 0)  -->
<!DOCTYPE svg PUBLIC "-//W3C//DTD SVG 1.0//EN" "http://www.w3.org/TR/2001/REC-SVG-20010904/DTD/svg10.dtd">
<svg version="1.0" id="Слой_1" xmlns="http://www.w3.org/2000/svg" xmlns:xlink="http://www.w3.org/1999/xlink" x="0px" y="0px"
	 width="24.225px" height="37.774px" viewBox="0 0 24.225 37.774" enable-background="new 0 0 24.225 37.774" xml:space="preserve">
<g>
	<path d="M12.387,0h-0.55C5.31,0,0,5.311,0,11.838v14.098c0,6.527,5.311,11.838,11.838,11.838h0.55
		c6.527,0,11.838-5.311,11.838-11.838V11.838C24.225,5.311,18.915,0,12.387,0z M23.225,25.937c0,5.976-4.862,10.838-10.838,10.838
		h-0.55C5.862,36.774,1,31.912,1,25.937V11.838C1,5.862,5.862,1,11.837,1h0.55c5.976,0,10.838,4.862,10.838,10.838V25.937z"/>
	<path d="M12.112,25.417c-0.276,0-0.5,0.223-0.5,0.5v8.557c0,0.275,0.224,0.5,0.5,0.5s0.5-0.225,0.5-0.5v-8.557
		C12.612,25.64,12.388,25.417,12.112,25.417z"/>
</g>
</svg>
